<svg version="1.1" xmlns="http://www.w3.org/2000/svg" xmlns:xlink="http://www.w3.org/1999/xlink" x="0px" y="0px" fill="#fff" viewBox="0 0 301 35" style="enable-background:new 0 0 301 35;" xml:space="preserve"><style type="text/css">.st0{fill:#FFF}</style><g> <path d="M14.2,0C6.5,0,0.4,5.4,0.4,11.9c0,0.2,0,0.3,0,0.5l0,0C0.9,22.2,14.2,35,14.2,35S27.3,22.2,28,12.4l0,0 c0-0.2,0-0.3,0-0.5C28,5.4,21.7,0,14.2,0z M23.6,15.2c-0.7,0.9-1.8,0.9-2.6,0.3L20.3,15l-0.9,6.3c0,0.4-0.2,0.7-0.3,0.9 c-0.2,0.2-0.4,0.4-0.7,0.4h-2.1c-0.9,0-0.9-0.7-0.9-0.9l0,0l0,0l0.2-3c0-0.3-0.2-0.7-0.5-0.7h-2.3c-0.4,0-0.5,0.4-0.5,0.7l0.2,3 c0,0,0,0.9-0.9,0.9H9.5c-0.2,0-0.5-0.2-0.7-0.4c-0.2-0.2-0.3-0.5-0.3-0.9L7.5,15l-0.7,0.5l0,0c-0.3,0.2-0.7,0.4-1.1,0.4 c-0.5,0-1-0.2-1.4-0.7c-0.7-0.9-0.5-1.9,0.3-2.6l8.1-6.3c0.7-0.5,1.6-0.5,2.3,0l8.1,6.3C24.2,13.3,24.3,14.5,23.6,15.2z"></path> <g> <g> <path d="M38,7.7h6v4.2c1.2-2.8,3.1-4.7,6.6-4.6v6.1h-0.4c-4,0-6.3,2.4-6.3,7.3v7.7h-6C38,28.5,38,7.7,38,7.7z"></path> <path d="M52.5,21.2V7.7h6v11.7c0,2.8,1.4,4.2,3.7,4.2s3.7-1.4,3.7-4.2V7.7h6v20.8h-6v-3c-1.4,1.8-3.2,3.3-6.1,3.3 C55.1,29,52.5,26.1,52.5,21.2z"></path> <path d="M75.4,7.7h6v3c1.4-1.8,3.1-3.3,6.1-3.3c2.8,0,4.7,1.2,5.9,3.3c1.8-2.1,4-3.3,6.8-3.3c4.4,0,7,2.6,7,7.7v13.7 h-6V17c0-2.8-1.2-4.2-3.5-4.2c-2.3,0-3.7,1.4-3.7,4.2v11.7h-6V17c0-2.8-1.2-4.2-3.5-4.2c-2.3,0-3.5,1.4-3.5,4.2v11.7h-5.9 L75.4,7.7L75.4,7.7z"></path> <path d="M109.7,22.6L109.7,22.6c0-4.7,3.5-6.8,8.4-6.8c2.1,0,3.7,0.3,5.1,0.9v-0.3c0-2.5-1.6-3.9-4.5-3.9 c-2.3,0-3.8,0.4-5.8,1.1l-1.4-4.6c2.3-1,4.6-1.7,8.1-1.7c3.2,0,5.6,0.9,7,2.3c1.6,1.6,2.3,3.8,2.3,6.7v12.1H123v-1.9 c-1.4,1.6-3.5,2.6-6.3,2.6C112.9,29,109.7,26.8,109.7,22.6z M123.4,21.2v-1.1c-1.1-0.5-2.3-0.7-3.8-0.7c-2.5,0-4,1.1-4,2.8l0,0 c0,1.6,1.4,2.4,3.2,2.4C121.4,24.8,123.4,23.3,123.4,21.2z"></path> <path d="M132.5,0.2h5.9v10.5c1.4-1.8,3.2-3.3,6.1-3.3c4.6,0,7.2,3,7.2,7.7v13.5h-6.1V16.8c0-2.8-1.4-4.2-3.7-4.2 s-3.7,1.4-3.7,4.2v11.7h-6L132.5,0.2L132.5,0.2z"></path> <path d="M159.4,7.2l-4.7,1.2l-1.2-4.9l7.9-2.3h4v27.5h-6V7.2z"></path> <path d="M169.4,23.8l9.1-7.5c3.3-2.8,4.7-4.4,4.7-6.5c0-2.3-1.6-3.5-3.7-3.5c-2.1,0-3.5,1.2-5.6,3.7l-4.2-3.3 C172.4,3,175,1,179.9,1c5.6,0,9.4,3.3,9.4,8.4l0,0c0,4.5-2.3,6.8-7.2,10.5l-4.4,3.5h11.9v5.2h-20.1v-4.9 C169.6,23.8,169.4,23.8,169.4,23.8z"></path> <path d="M191.6,24.3l4.2-4c1.9,2.1,3.8,3.3,6.7,3.3c2.3,0,3.8-1.2,3.8-3.3l0,0c0-2.3-1.9-3.5-5.4-3.5h-2.5l-0.9-3.8 l6.5-6.5h-10.7V1.4h18.4v4.5l-6.8,6.7c3.7,0.7,7.4,2.6,7.4,7.7l0,0c0,5.1-3.7,8.9-9.8,8.9C197.4,29,193.9,27.1,191.6,24.3z"></path> <g> <g> <path d="M215.3,25.5c0-1.8,1.4-3.1,3.2-3.1s3.1,1.4,3.1,3.1s-1.4,3.1-3.1,3.1C216.7,28.5,215.3,27.1,215.3,25.5z"></path> </g> </g> <path d="M223.3,18.2L223.3,18.2c0-6.1,4.6-11,11-11c4,0,6.5,1.4,8.4,3.5l-3.7,3.8c-1.4-1.4-2.6-2.3-4.7-2.3 c-3,0-5.1,2.6-5.1,5.8l0,0c0,3.1,2.1,5.8,5.2,5.8c1.9,0,3.3-0.9,4.7-2.3l3.5,3.5c-2.1,2.3-4.4,3.9-8.6,3.9 C227.9,29,223.3,24.1,223.3,18.2z"></path> <path d="M243.4,18.2L243.4,18.2c0-6.1,4.9-11,11.4-11c6.5,0,11.2,4.7,11.2,10.9l0,0c0,5.9-4.9,10.9-11.4,10.9 C248.2,29,243.4,24.3,243.4,18.2z M260.2,18.2L260.2,18.2c0-3.2-2.3-5.8-5.4-5.8c-3.3,0-5.4,2.6-5.4,5.8l0,0 c0,3.1,2.3,5.8,5.4,5.8C258.1,24,260.2,21.3,260.2,18.2z"></path> <path d="M268.8,7.7h6v3c1.4-1.8,3.1-3.3,6.1-3.3c2.8,0,4.7,1.2,5.9,3.3c1.8-2.1,4-3.3,6.8-3.3c4.4,0,7,2.6,7,7.7 v13.7h-5.9V17c0-2.8-1.2-4.2-3.5-4.2c-2.3,0-3.7,1.4-3.7,4.2v11.7h-5.9V17c0-2.8-1.2-4.2-3.5-4.2c-2.3,0-3.7,1.4-3.7,4.2v11.7 h-5.9v-21C268.5,7.7,268.8,7.7,268.8,7.7z"></path> </g> </g> </g> </svg>